<svg xmlns="http://www.w3.org/2000/svg" viewBox="0 0 100 100" fill="none">
  <!-- 補亦樂乎小芽 b：與 SproutLogo 同形，固定色供瀏覽器分頁圖示 -->
  <path
    d="M 18,8 L 38,8 L 38,48 A 30,30 0 0,1 18,62 Z"
    fill="#1e293b"
  />
  <path
    d="M 38,22 L 54,22 A 34,34 0 0,1 88,56 A 34,34 0 0,1 54,90 L 38,90 L 38,68 L 54,68 A 12,12 0 0,0 66,56 A 12,12 0 0,0 54,44 L 38,44 Z"
    fill="#1e293b"
  />
  <g fill="#10b981">
    <path d="M 26,74 L 30,74 L 30,90 L 26,90 Z" />
    <path d="M 27,74 C 14,74 10,63 12,56 C 18,56 26,64 27,74 Z" />
    <path d="M 29,72 C 42,65 46,52 45,44 C 35,46 28,59 29,72 Z" />
  </g>
</svg>
